<svg width="2348" height="446" viewBox="0 0 2348 446" fill="none" xmlns="http://www.w3.org/2000/svg">
<path d="M2 444.858L671.799 1.14417L1676.52 1.14417L2346.32 444.858L2 444.858Z" stroke="#C3C3C3" stroke-width="0.75" stroke-miterlimit="10"/>
<path d="M2011.43 444.858L1532.98 1.14417" stroke="#C3C3C3" stroke-width="0.75" stroke-miterlimit="10"/>
<path d="M1676.52 444.858L1389.46 1.14417" stroke="#C3C3C3" stroke-width="0.75" stroke-miterlimit="10"/>
<path d="M1341.61 444.858L1245.93 1.14417" stroke="#C3C3C3" stroke-width="0.75" stroke-miterlimit="10"/>
<path d="M1006.71 444.858L1102.39 1.14417" stroke="#C3C3C3" stroke-width="0.75" stroke-miterlimit="10"/>
<path d="M671.797 444.858L958.869 1.14417" stroke="#C3C3C3" stroke-width="0.75" stroke-miterlimit="10"/>
<path d="M336.891 444.858L815.334 1.14417" stroke="#C3C3C3" stroke-width="0.75" stroke-miterlimit="10"/>
<path d="M627.152 30.7217L1721.16 30.7217" stroke="#C3C3C3" stroke-width="0.75" stroke-miterlimit="10"/>
<path d="M573.777 66.0781L1774.54 66.0781" stroke="#C3C3C3" stroke-width="0.75" stroke-miterlimit="10"/>
<path d="M508.871 109.073L1839.44 109.073" stroke="#C3C3C3" stroke-width="0.75" stroke-miterlimit="10"/>
<path d="M428.234 162.494L1920.08 162.494" stroke="#C3C3C3" stroke-width="0.75" stroke-miterlimit="10"/>
<path d="M325.344 230.652L2022.97 230.652" stroke="#C3C3C3" stroke-width="0.75" stroke-miterlimit="10"/>
<path d="M189.543 320.618L2158.78 320.618" stroke="#C3C3C3" stroke-width="0.75" stroke-miterlimit="10"/>
</svg>
